<svg id="Camada_1" data-name="Camada 1" xmlns="http://www.w3.org/2000/svg" viewBox="0 0 1280 596"><defs><style>.cls-1{fill:#ff7f00;}.cls-2{fill:#c6c2c2;stroke-width:3px;}.cls-19,.cls-2,.cls-3,.cls-4,.cls-5{stroke:#6d6b6b;}.cls-14,.cls-19,.cls-2,.cls-20,.cls-3,.cls-4,.cls-5{stroke-miterlimit:10;}.cls-3{fill:#dda21d;}.cls-14,.cls-3,.cls-4{stroke-width:2px;}.cls-20,.cls-4,.cls-5{fill:none;}.cls-6,.cls-8{fill:#292929;}.cls-7{fill:#fcfcfc;}.cls-8{font-size:15.43px;font-family:Vonique64-Bold, Vonique64 Bold;font-weight:700;}.cls-9{letter-spacing:-0.04em;}.cls-10{letter-spacing:-0.08em;}.cls-11{letter-spacing:-0.05em;}.cls-12{letter-spacing:-0.06em;}.cls-13{letter-spacing:0em;}.cls-14{fill:#999292;stroke:#5b5454;}.cls-15{font-size:20.69px;}.cls-15,.cls-22{font-family:MyriadPro-Regular, Myriad Pro;}.cls-16{letter-spacing:-0.03em;}.cls-17{letter-spacing:0em;}.cls-18{letter-spacing:0em;}.cls-19{fill:#3f3838;}.cls-20{stroke:#fff;}.cls-21{fill:#6d6b6b;}.cls-22{font-size:61px;fill:#333;}.cls-23{letter-spacing:0.01em;}.cls-24{letter-spacing:0em;}.cls-25{letter-spacing:0em;}.cls-26{letter-spacing:0.02em;}.cls-27{letter-spacing:0em;}</style></defs><title>bannercel</title><rect class="cls-1" width="1280" height="596"/><path class="cls-2" d="M957.91,42.34l-164,396.07s-30,48.51,12.55,74.85L984.89,587.1s36.29,17.51,53.5-30.09l170.2-410.9,8.35-20.17s6.29-33.47-30.25-47.35L1017.87,8.67S971.32-8.08,957.91,42.34Z"/><rect class="cls-3" x="894.53" y="121.85" width="213.76" height="345.92" transform="translate(188.91 -360.61) rotate(22.49)"/><rect class="cls-4" x="1055.4" y="87.26" width="62.06" height="10.34" transform="translate(117.97 -408.52) rotate(22.49)"/><circle class="cls-5" cx="915.02" cy="499.72" r="22.98" transform="translate(103.32 1154.03) rotate(-67.51)"/><path class="cls-6" d="M993.37,112s14.46,1.42,23.19,14.17c-.2.48,6.53,6,3.14,8.54l5.72,8.94-9,5.54s-.59-6.49-4.42-6.07c0,0-1.25.49,2.18,3.91,0,0-1.85,4.14-3.12,4.06,0,0-3-5.8-8.4-7,0,0-3.86-3.16-4.22-5.76,0,0-3.41,1.6,4.1,11.28,0,0,7.44,10.81-17.59,12.78,0,0-4.32-15.17.92-25.93,0,0-7.89,10.22-7.27,18.84,0,0-6.88-11.21-6.52-15.85,0,0,3.41-11.07,12.73-17.47l-8.52,1.93s9.65-10.66,21.55-7.8Z"/><path class="cls-7" d="M1013.79,131.26s3.35,3.28,3.69,5.32c-.16-.57-4.83-2.56-4.83-2.56A4.5,4.5,0,0,1,1013.79,131.26Z"/><text class="cls-8" transform="translate(1034.64 158.63) rotate(22.49)">B<tspan class="cls-9" x="8.36" y="0">L</tspan><tspan x="15.04" y="0">OCKS</tspan><tspan class="cls-10" x="50.58" y="0">T</tspan><tspan class="cls-11" x="57.09" y="0">A</tspan><tspan class="cls-12" x="65.71" y="0">V</tspan><tspan class="cls-13" x="73.44" y="0">A</tspan></text><circle class="cls-14" cx="988.22" cy="308.62" r="65.51" transform="translate(325.08 1103.66) rotate(-67.51)"/><text class="cls-15" transform="translate(953.66 300.91) rotate(22.49)"><tspan class="cls-16">V</tspan><tspan x="10.86" y="0">e</tspan><tspan class="cls-17" x="21.22" y="0">r</tspan><tspan class="cls-18" x="28.07" y="0">ificar</tspan></text><rect class="cls-19" x="835.19" y="420.34" width="213.76" height="35.63" transform="translate(239.22 -327.01) rotate(22.49)"/><line class="cls-20" x1="1032.32" y1="475.52" x2="1014.8" y2="468.26"/><line class="cls-20" x1="1030.78" y1="479.23" x2="1013.26" y2="471.98"/><line class="cls-20" x1="1029.03" y1="483.48" x2="1011.51" y2="476.23"/><circle class="cls-19" cx="869.07" cy="407.93" r="12.93" transform="translate(159.75 1054.88) rotate(-67.51)"/><ellipse class="cls-21" cx="869.66" cy="404.99" rx="4.74" ry="3.73" transform="translate(162.83 1053.62) rotate(-67.51)"/><circle class="cls-21" cx="865.97" cy="413.91" r="6.22" transform="translate(152.31 1055.72) rotate(-67.51)"/><text class="cls-22" transform="translate(124 235)"><tspan class="cls-23">S</tspan><tspan x="30.44" y="0">egu</tspan><tspan class="cls-24" x="128.71" y="0">r</tspan><tspan x="148.35" y="0">ança essencial pa</tspan><tspan class="cls-25" x="586.93" y="0">r</tspan><tspan x="606.58" y="0">a </tspan><tspan x="0" y="73.2">seu sma</tspan><tspan class="cls-26" x="205.69" y="73.2">r</tspan><tspan class="cls-27" x="227.1" y="73.2">tphone</tspan></text></svg>