<svg id="Camada_1" data-name="Camada 1" xmlns="http://www.w3.org/2000/svg" viewBox="0 0 146.5 127.11"><defs><style>.cls-1{fill:none;stroke:#ff7f00;stroke-miterlimit:10;stroke-width:6px;}</style></defs><title>item3</title><path class="cls-1" d="M14.53,55.87S16.22-2.67,75,17.39c0,0,24.75-27.38,55.13-6.61,0,0,36.28,23.84-10.69,50.28l-.28,13.46a10.25,10.25,0,0,1-4.78,9.21l.56,6.37s4.78.94,3.66,6.61c0,0,2.25,5.19-3.94,6.85l.28,3.07s5.06,2.6,4.22,5.43c0,0,0,4.25-3.66,4.49a11.61,11.61,0,0,1-13.5,7.32l-3.38-2.36s-.84,2.36-4.78,2.36l-78.19.26S5.81,121.73,3,113V70.74S3.28,61.77,14.53,55.87Z"/><path class="cls-1" d="M14.53,55.87H82.59s-13.78-8.26-11-28.8c0,0,.28-2.83,3.38-9.68"/><path class="cls-1" d="M30.56,55.87S26.63,16.45,69.66,30.38"/><path class="cls-1" d="M98.63,121.49s-4.22-3.07-3.38-14.87l-.11-43.07V61.77s-7.34-1-12.54-5.9"/><ellipse class="cls-1" cx="106.98" cy="17.04" rx="7.45" ry="6.26"/></svg>