<svg id="Camada_1" data-name="Camada 1" xmlns="http://www.w3.org/2000/svg" viewBox="0 0 93.48 24.08"><defs><style>.cls-1,.cls-3{fill:#292929;}.cls-2{fill:#fcfcfc;}.cls-3{font-size:12px;font-family:MyriadPro-Regular, Myriad Pro;}.cls-4{letter-spacing:-0.04em;}.cls-5{letter-spacing:-0.07em;}.cls-6{letter-spacing:-0.05em;}.cls-7{letter-spacing:-0.06em;}.cls-8{letter-spacing:0em;}</style></defs><title>logobs</title><g id="Camada_2" data-name="Camada 2"><path class="cls-1" d="M5.33.5a16.39,16.39,0,0,1,12.73,2c0,.24,4,1.46,2.92,3.17l4.13,2.88-2.92,4.05s-1.43-2.73-3-1.86c0,0-.46.44,1.66,1.32,0,0-.06,2.15-.63,2.34,0,0-2.35-2-5-1.56,0,0-2.26-.68-2.89-1.76,0,0-1.2,1.32,3.84,4.2,0,0,5.22,3.39-5.39,8.79,0,0-4.64-5.86-4.3-11.52,0,0-1.6,5.91.23,9.57,0,0-5-3.66-5.73-5.76a17.36,17.36,0,0,1,2.41-10L0,8.8S2.29,2.38,8,1.48Z"/><path class="cls-2" d="M17.77,5.24A7.23,7.23,0,0,1,20.35,6.9a11,11,0,0,0-2.58-.24A2.14,2.14,0,0,1,17.77,5.24Z"/><text class="cls-3" transform="translate(29 15.56)">B<tspan class="cls-4" x="6.5" y="0">L</tspan><tspan x="11.7" y="0">OCKS</tspan><tspan class="cls-5" x="39.35" y="0">T</tspan><tspan class="cls-6" x="44.41" y="0">A</tspan><tspan class="cls-7" x="51.12" y="0">V</tspan><tspan class="cls-8" x="57.13" y="0">A</tspan></text></g></svg>