<svg id="Camada_1" data-name="Camada 1" xmlns="http://www.w3.org/2000/svg" viewBox="0 0 30.56 31.5"><defs><style>.cls-1{fill:#fbb03b;}.cls-2{fill:none;stroke:#fbb03b;stroke-miterlimit:10;stroke-width:3px;}</style></defs><title>suporte</title><g id="Camada_2" data-name="Camada 2"><path class="cls-1" d="M30.56,31.5H0l2.34-8.68,8.88-3,1.1,4.41,2.8-3.64.36.44,1.14,1.36,1.14,1.37.13.16.82-4.4,9.51,3ZM1.19,30.59h28.2l-1.91-7.36-8.05-2.5-1,5.29-1.37-1.64L15.92,23l-.77-.93-3.26,4.23L10.57,21,3.09,23.52Z"/><path class="cls-2" d="M13.92,25"/><path class="cls-1" d="M15.19,20.6H15.1a6.28,6.28,0,0,1-4-2.42C8.68,15.26,7.85,10.4,8.62,3.73l0-.22.19-.12C11.37,1.85,14.52,0,15.13,0c.77,0,5.75,2.5,6.44,3.53.48.73,1.72,6.12.11,10.75a9.62,9.62,0,0,1-6.4,6.29ZM9.5,4.06c-.87,7.84.76,11.69,2.28,13.53a5.58,5.58,0,0,0,3.31,2.09,8.73,8.73,0,0,0,5.69-5.57A16.79,16.79,0,0,0,20.81,4c-.49-.73-4.94-3-5.67-3.13A52.5,52.5,0,0,0,9.5,4.06Z"/><path class="cls-1" d="M15.43,19.09h-.08c-7-1.28-5.29-12.46-5.21-12.94L10.32,5,11,6a2.86,2.86,0,0,0,1.55,1c.74.19,4.55-.94,7-1.81L20,5l.1.51c1,4.79.63,8.48-1,11a6,6,0,0,1-3.56,2.6ZM10.93,7.19c-.25,2.61-.49,10,4.5,11a5.2,5.2,0,0,0,2.91-2.22c1.44-2.15,1.78-5.51,1-9.74-1.66.57-5.9,1.94-7,1.66A3.71,3.71,0,0,1,10.93,7.19Z"/><path class="cls-1" d="M14.94,16.47a1.49,1.49,0,0,1-.8-.21A1.54,1.54,0,0,1,13.47,15v-.11l0-.1c.48-1,1.05-1.47,1.7-1.51a1.71,1.71,0,0,1,1.35.65h2.1l.91-.45.41.81L16.55,16A3.72,3.72,0,0,1,14.94,16.47Zm-.55-1.39a.58.58,0,0,0,.23.4c.27.16.82.05,1.52-.29l.7-.35H16.1l-.13-.2c-.08-.12-.39-.47-.7-.45S14.68,14.52,14.38,15.08Z"/><path class="cls-2" d="M19,15.73"/></g></svg>